<svg width="18" height="18" viewBox="0 0 18 18" fill="none" xmlns="http://www.w3.org/2000/svg">
<path d="M17.6929 16.7201L13.39 12.4181C14.6372 10.9208 15.2591 9.00031 15.1263 7.05619C14.9936 5.11206 14.1164 3.29395 12.6774 1.98006C11.2383 0.66618 9.34806 -0.0423181 7.39991 0.00195681C5.45177 0.0462317 3.59568 0.839871 2.21778 2.21778C0.839871 3.59568 0.0462317 5.45177 0.00195681 7.39991C-0.0423181 9.34806 0.66618 11.2383 1.98006 12.6774C3.29395 14.1164 5.11206 14.9936 7.05619 15.1263C9.00031 15.2591 10.9208 14.6372 12.4181 13.39L16.7201 17.6929C16.784 17.7568 16.8598 17.8074 16.9433 17.842C17.0267 17.8766 17.1162 17.8944 17.2065 17.8944C17.2968 17.8944 17.3863 17.8766 17.4697 17.842C17.5532 17.8074 17.629 17.7568 17.6929 17.6929C17.7568 17.629 17.8074 17.5532 17.842 17.4697C17.8766 17.3863 17.8944 17.2968 17.8944 17.2065C17.8944 17.1162 17.8766 17.0267 17.842 16.9433C17.8074 16.8598 17.7568 16.784 17.6929 16.7201ZM1.39399 7.58149C1.39399 6.35772 1.75689 5.16143 2.43678 4.1439C3.11667 3.12637 4.08302 2.33331 5.21364 1.86499C6.34426 1.39667 7.58836 1.27414 8.78862 1.51289C9.98887 1.75163 11.0914 2.34093 11.9567 3.20627C12.8221 4.07161 13.4114 5.17412 13.6501 6.37437C13.8889 7.57463 13.7663 8.81873 13.298 9.94935C12.8297 11.08 12.0366 12.0463 11.0191 12.7262C10.0016 13.4061 8.80527 13.769 7.58149 13.769C5.94103 13.7672 4.36827 13.1147 3.20828 11.9547C2.04829 10.7947 1.39581 9.22196 1.39399 7.58149Z" fill="black"/>
</svg>
